<svg width="27" height="23" viewBox="0 0 27 23" fill="none" xmlns="http://www.w3.org/2000/svg">
<path d="M13.5149 22.151C13.3447 22.152 13.176 22.1194 13.0185 22.055C12.861 21.9907 12.7177 21.8959 12.5969 21.7761L2.55104 11.7173C1.29092 10.444 0.584091 8.72493 0.584091 6.93352C0.584091 5.14212 1.29092 3.42306 2.55104 2.14978C3.82101 0.88339 5.54131 0.172241 7.33478 0.172241C9.12826 0.172241 10.8486 0.88339 12.1185 2.14978L13.5149 3.54611L14.9112 2.14978C16.1812 0.88339 17.9015 0.172241 19.695 0.172241C21.4884 0.172241 23.2087 0.88339 24.4787 2.14978C25.7388 3.42306 26.4456 5.14212 26.4456 6.93352C26.4456 8.72493 25.7388 10.444 24.4787 11.7173L14.4328 21.7761C14.312 21.8959 14.1687 21.9907 14.0112 22.055C13.8537 22.1194 13.685 22.152 13.5149 22.151ZM7.33478 2.75744C6.78747 2.75496 6.2451 2.86111 5.73909 3.06972C5.23309 3.27834 4.7735 3.58528 4.38696 3.97277C3.60612 4.75772 3.1678 5.81988 3.1678 6.92706C3.1678 8.03424 3.60612 9.0964 4.38696 9.88135L13.5149 19.0222L22.6428 9.88135C23.4236 9.0964 23.8619 8.03424 23.8619 6.92706C23.8619 5.81988 23.4236 4.75772 22.6428 3.97277C21.8459 3.21992 20.7912 2.80049 19.695 2.80049C18.5987 2.80049 17.544 3.21992 16.7471 3.97277L14.4328 6.3C14.3126 6.42118 14.1696 6.51737 14.0121 6.58301C13.8545 6.64865 13.6855 6.68244 13.5149 6.68244C13.3442 6.68244 13.1752 6.64865 13.0176 6.58301C12.8601 6.51737 12.7171 6.42118 12.5969 6.3L10.2826 3.97277C9.89606 3.58528 9.43648 3.27834 8.93048 3.06972C8.42447 2.86111 7.8821 2.75496 7.33478 2.75744Z" fill="#231F20"/>
</svg>
