<svg width="6" height="24" viewBox="0 0 6 24" fill="none" xmlns="http://www.w3.org/2000/svg">
<path d="M3.01487 14.5173C4.39695 14.5173 5.51734 13.3969 5.51734 12.0149C5.51734 10.6328 4.39695 9.51237 3.01487 9.51237C1.63279 9.51237 0.51239 10.6328 0.51239 12.0149C0.51239 13.3969 1.63279 14.5173 3.01487 14.5173Z" fill="#231F20"/>
<path d="M3.01487 5.75868C4.39695 5.75868 5.51734 4.63828 5.51734 3.2562C5.51734 1.87412 4.39695 0.753723 3.01487 0.753723C1.63279 0.753723 0.51239 1.87412 0.51239 3.2562C0.51239 4.63828 1.63279 5.75868 3.01487 5.75868Z" fill="#231F20"/>
<path d="M3.01487 23.276C4.39695 23.276 5.51734 22.1556 5.51734 20.7735C5.51734 19.3914 4.39695 18.271 3.01487 18.271C1.63279 18.271 0.51239 19.3914 0.51239 20.7735C0.51239 22.1556 1.63279 23.276 3.01487 23.276Z" fill="#231F20"/>
</svg>
