<svg width="33" height="33" viewBox="0 0 33 33" fill="none" xmlns="http://www.w3.org/2000/svg">
<path d="M16.0212 20.0265C17.4376 20.0265 18.7959 19.4638 19.7975 18.4623C20.799 17.4608 21.3616 16.1024 21.3616 14.6861V8.01057C21.3616 6.59421 20.799 5.23585 19.7975 4.23433C18.7959 3.23281 17.4376 2.67017 16.0212 2.67017C14.6049 2.67017 13.2465 3.23281 12.245 4.23433C11.2435 5.23585 10.6808 6.59421 10.6808 8.01057V14.6861C10.6808 16.1024 11.2435 17.4608 12.245 18.4623C13.2465 19.4638 14.6049 20.0265 16.0212 20.0265Z" fill="#231F20"/>
<path d="M25.3669 14.6861C25.3669 14.332 25.2263 13.9924 24.9759 13.742C24.7255 13.4916 24.3859 13.351 24.0318 13.351C23.6777 13.351 23.3381 13.4916 23.0878 13.742C22.8374 13.9924 22.6967 14.332 22.6967 14.6861C22.6967 16.4565 21.9934 18.1545 20.7415 19.4064C19.4896 20.6583 17.7917 21.3616 16.0212 21.3616C14.2508 21.3616 12.5528 20.6583 11.3009 19.4064C10.049 18.1545 9.34571 16.4565 9.34571 14.6861C9.34571 14.332 9.20505 13.9924 8.95467 13.742C8.70429 13.4916 8.3647 13.351 8.01061 13.351C7.65652 13.351 7.31693 13.4916 7.06655 13.742C6.81617 13.9924 6.67551 14.332 6.67551 14.6861C6.67814 16.9315 7.48913 19.1009 8.9601 20.7975C10.4311 22.494 12.4637 23.6042 14.6861 23.925V26.702H11.869C11.5539 26.702 11.2517 26.8272 11.0288 27.05C10.806 27.2729 10.6808 27.5751 10.6808 27.8902V28.184C10.6808 28.4991 10.806 28.8013 11.0288 29.0242C11.2517 29.247 11.5539 29.3722 11.869 29.3722H20.1734C20.4885 29.3722 20.7907 29.247 21.0136 29.0242C21.2364 28.8013 21.3616 28.4991 21.3616 28.184V27.8902C21.3616 27.5751 21.2364 27.2729 21.0136 27.05C20.7907 26.8272 20.4885 26.702 20.1734 26.702H17.3563V23.925C19.5787 23.6042 21.6113 22.494 23.0823 20.7975C24.5533 19.1009 25.3643 16.9315 25.3669 14.6861Z" fill="#231F20"/>
</svg>
