<svg width="31" height="23" viewBox="0 0 31 23" fill="none" xmlns="http://www.w3.org/2000/svg">
<path d="M26.5118 18.4863L22.172 15.2375C23.5722 13.8982 24.332 12.2443 24.3292 10.5417C24.3292 9.02535 23.7303 7.54308 22.6082 6.2823C21.4862 5.02152 19.8914 4.03887 18.0256 3.45859C16.1597 2.87832 14.1065 2.7265 12.1258 3.02232C10.145 3.31814 8.32548 4.04832 6.89741 5.12052C5.46933 6.19272 4.4968 7.55879 4.1028 9.04598C3.70879 10.5332 3.91101 12.0747 4.68388 13.4756C5.45675 14.8765 6.76555 16.0738 8.44479 16.9163C10.124 17.7587 12.0983 18.2083 14.1179 18.2083C16.3856 18.2105 18.5884 17.64 20.3723 16.5888L24.6993 19.8471C24.818 19.9369 24.9591 20.0082 25.1147 20.0569C25.2702 20.1055 25.4371 20.1306 25.6056 20.1306C25.7741 20.1306 25.9409 20.1055 26.0964 20.0569C26.252 20.0082 26.3932 19.9369 26.5118 19.8471C26.6315 19.758 26.7264 19.652 26.7912 19.5352C26.856 19.4184 26.8894 19.2932 26.8894 19.1667C26.8894 19.0402 26.856 18.9149 26.7912 18.7981C26.7264 18.6813 26.6315 18.5753 26.5118 18.4863ZM6.45941 10.5417C6.45941 9.40443 6.90857 8.29272 7.75009 7.34714C8.59162 6.40156 9.78771 5.66457 11.1871 5.22936C12.5865 4.79416 14.1264 4.68029 15.612 4.90215C17.0976 5.12402 18.4622 5.67165 19.5332 6.47581C20.6043 7.27996 21.3337 8.30451 21.6292 9.4199C21.9247 10.5353 21.773 11.6914 21.1934 12.7421C20.6137 13.7928 19.6321 14.6908 18.3727 15.3226C17.1133 15.9544 15.6326 16.2917 14.1179 16.2917C12.0867 16.2917 10.1388 15.6859 8.70252 14.6075C7.26628 13.5292 6.45941 12.0667 6.45941 10.5417Z" fill="#231F20"/>
</svg>
