<svg width="35" height="35" viewBox="0 0 35 35" fill="none" xmlns="http://www.w3.org/2000/svg">
<path d="M19.1058 34.2876H15.8771C15.1159 34.2876 14.3859 33.9852 13.8477 33.447C13.3094 32.9088 13.0071 32.1788 13.0071 31.4176V29.5555C12.9978 29.4458 12.9576 29.341 12.891 29.2533C12.8245 29.1656 12.7344 29.0986 12.6312 29.0601C12.5267 28.9931 12.4052 28.9575 12.281 28.9575C12.1569 28.9575 12.0354 28.9931 11.9308 29.0601L10.6667 30.4268C10.4015 30.6938 10.0861 30.9057 9.73866 31.0504C9.39123 31.195 9.01861 31.2695 8.64228 31.2695C8.26595 31.2695 7.89333 31.195 7.5459 31.0504C7.19847 30.9057 6.88308 30.6938 6.61791 30.4268L4.27749 28.1376C4.00658 27.873 3.79143 27.5567 3.64472 27.2076C3.49802 26.8584 3.42274 26.4834 3.42332 26.1047C3.42442 25.33 3.73141 24.5871 4.27749 24.0376L5.54166 22.7734C5.60269 22.6793 5.63517 22.5696 5.63517 22.4574C5.63517 22.3452 5.60269 22.2355 5.54166 22.1414C5.43916 21.8851 5.26832 21.6972 5.02916 21.6972H3.28666C2.52392 21.6927 1.79396 21.3865 1.25622 20.8456C0.718471 20.3046 0.416643 19.5729 0.416656 18.8101V15.5814C0.416656 14.8202 0.719031 14.0902 1.25726 13.552C1.79549 13.0137 2.52549 12.7114 3.28666 12.7114H5.14874C5.25845 12.7021 5.36327 12.6619 5.45098 12.5953C5.53869 12.5288 5.60569 12.4387 5.64416 12.3355C5.71113 12.231 5.74672 12.1095 5.74672 11.9853C5.74672 11.8612 5.71113 11.7396 5.64416 11.6351L4.27749 10.3709C4.01045 10.1058 3.79852 9.79038 3.65389 9.44295C3.50926 9.09551 3.43481 8.7229 3.43481 8.34657C3.43481 7.97023 3.50926 7.59762 3.65389 7.25019C3.79852 6.90275 4.01045 6.58737 4.27749 6.32219L6.56666 3.98178C6.82871 3.71215 7.14206 3.49768 7.48826 3.35098C7.83445 3.20429 8.2065 3.12834 8.58249 3.12761C8.96899 3.12591 9.35203 3.20049 9.70967 3.34706C10.0673 3.49363 10.3925 3.70932 10.6667 3.98178L11.9308 5.24594C12.0249 5.30697 12.1347 5.33945 12.2469 5.33945C12.359 5.33945 12.4688 5.30697 12.5629 5.24594C12.8192 5.14344 13.0071 4.97261 13.0071 4.73344V2.99094C13.0116 2.2282 13.3178 1.49824 13.8587 0.9605C14.3996 0.422756 15.1314 0.120928 15.8942 0.120941H19.2083C19.9695 0.120941 20.6995 0.423315 21.2377 0.961545C21.7759 1.49977 22.0783 2.22977 22.0783 2.99094V4.85302C22.0876 4.96273 22.1278 5.06755 22.1944 5.15526C22.2609 5.24298 22.351 5.30997 22.4542 5.34844C22.5587 5.41541 22.6802 5.45101 22.8044 5.45101C22.9285 5.45101 23.05 5.41541 23.1546 5.34844L24.3333 3.98178C24.5985 3.71474 24.9139 3.5028 25.2613 3.35817C25.6088 3.21355 25.9814 3.13909 26.3577 3.13909C26.734 3.13909 27.1066 3.21355 27.4541 3.35817C27.8015 3.5028 28.1169 3.71474 28.3821 3.98178L30.7225 6.27094C30.9926 6.53617 31.2073 6.85252 31.3539 7.20154C31.5006 7.55056 31.5763 7.92528 31.5767 8.30386C31.5849 8.68874 31.5133 9.07114 31.3662 9.42693C31.2192 9.78271 31 10.1042 30.7225 10.3709L29.4583 11.6351C29.3973 11.7292 29.3648 11.839 29.3648 11.9511C29.3648 12.0633 29.3973 12.1731 29.4583 12.2672C29.5608 12.5234 29.7317 12.7114 29.9708 12.7114H31.8329C32.5747 12.7465 33.2744 13.0661 33.7866 13.6038C34.2988 14.1415 34.5842 14.8558 34.5833 15.5984V18.9126C34.5833 19.6738 34.281 20.4038 33.7427 20.942C33.2045 21.4802 32.4745 21.7826 31.7133 21.7826H29.8512C29.7415 21.7919 29.6367 21.8321 29.549 21.8986C29.4613 21.9652 29.3943 22.0553 29.3558 22.1584C29.2948 22.2526 29.2623 22.3623 29.2623 22.4745C29.2623 22.5866 29.2948 22.6964 29.3558 22.7905L30.6712 24.1059C30.9383 24.3711 31.1502 24.6865 31.2948 25.0339C31.4395 25.3814 31.5139 25.754 31.5139 26.1303C31.5139 26.5067 31.4395 26.8793 31.2948 27.2267C31.1502 27.5741 30.9383 27.8895 30.6712 28.1547L28.4333 30.4268C28.1713 30.6964 27.8579 30.9109 27.5117 31.0576C27.1655 31.2043 26.7935 31.2802 26.4175 31.2809C25.6547 31.2709 24.9256 30.9646 24.3846 30.4268L23.0692 29.1626C22.975 29.1016 22.8653 29.0691 22.7531 29.0691C22.6409 29.0691 22.5312 29.1016 22.4371 29.1626C22.1808 29.2651 21.9929 29.4359 21.9929 29.6751V31.5372C21.9578 32.279 21.6381 32.9787 21.1005 33.4909C20.5628 34.0031 19.8484 34.2884 19.1058 34.2876ZM16.4237 30.8709H18.5762V29.5555C18.5835 28.7677 18.8244 27.9998 19.2684 27.349C19.7124 26.6982 20.3395 26.1938 21.0704 25.8997C21.8043 25.5789 22.617 25.484 23.405 25.627C24.1931 25.77 24.9206 26.1444 25.495 26.7026L26.4175 27.6251L27.9208 26.1218L26.9983 25.1822C26.4437 24.6165 26.0696 23.8988 25.9236 23.1202C25.7776 22.3415 25.8663 21.537 26.1783 20.8089C26.4751 20.0812 26.9806 19.4577 27.6312 19.0168C28.2818 18.576 29.0483 18.3377 29.8342 18.3318H31.1667V16.128H29.8512C29.0634 16.1207 28.2955 15.8799 27.6447 15.4359C26.9939 14.9919 26.4895 14.3647 26.1954 13.6339C25.8746 12.9 25.7797 12.0872 25.9227 11.2992C26.0657 10.5112 26.4402 9.78362 26.9983 9.20928L27.9208 8.28677L26.4175 6.78344L25.4779 7.70594C24.9034 8.23068 24.191 8.58035 23.4245 8.71378C22.6579 8.84721 21.8693 8.75884 21.1513 8.45907C20.4333 8.15932 19.8159 7.66064 19.3718 7.02178C18.9277 6.38292 18.6754 5.63047 18.6446 4.85302V3.53761H16.4237V4.85302C16.4165 5.64082 16.1756 6.40873 15.7316 7.05953C15.2876 7.71032 14.6604 8.21472 13.9296 8.50886C13.1957 8.82963 12.383 8.92458 11.5949 8.78158C10.8069 8.63857 10.0793 8.26411 9.50499 7.70594L8.58249 6.78344L7.07916 8.28677L8.00166 9.22636C8.52639 9.80083 8.87606 10.5133 9.00949 11.2798C9.14292 12.0463 9.05455 12.835 8.75479 13.553C8.45503 14.271 7.95636 14.8884 7.3175 15.3325C6.67863 15.7766 5.92618 16.0289 5.14874 16.0597H3.83332V18.2122H5.14874C5.93653 18.2195 6.70445 18.4604 7.35524 18.9044C8.00604 19.3484 8.51044 19.9755 8.80457 20.7064C9.12535 21.4402 9.22029 22.253 9.07729 23.041C8.93429 23.829 8.55983 24.5566 8.00166 25.1309L7.07916 26.0534L8.58249 27.5568L9.52207 26.6343C10.0965 26.1095 10.809 25.7599 11.5755 25.6264C12.342 25.493 13.1307 25.5814 13.8487 25.8811C14.5667 26.1809 15.1841 26.6796 15.6282 27.3184C16.0723 27.9573 16.3246 28.7098 16.3554 29.4872L16.4237 30.8709Z" fill="#231F20"/>
<path d="M17.5 23.1835C16.3174 23.1835 15.1614 22.8328 14.1782 22.1758C13.1949 21.5188 12.4285 20.585 11.976 19.4924C11.5234 18.3999 11.405 17.1977 11.6357 16.0378C11.8664 14.878 12.4359 13.8126 13.2721 12.9764C14.1083 12.1402 15.1737 11.5707 16.3335 11.34C17.4934 11.1093 18.6956 11.2277 19.7881 11.6803C20.8807 12.1328 21.8145 12.8992 22.4715 13.8825C23.1285 14.8657 23.4792 16.0217 23.4792 17.2043C23.4792 18.7901 22.8492 20.3109 21.7279 21.4322C20.6066 22.5535 19.0858 23.1835 17.5 23.1835ZM17.5 14.6418C16.9932 14.6418 16.4978 14.7921 16.0764 15.0737C15.655 15.3552 15.3265 15.7554 15.1326 16.2237C14.9386 16.6919 14.8879 17.2071 14.9868 17.7042C15.0856 18.2013 15.3297 18.6579 15.6881 19.0163C16.0464 19.3746 16.503 19.6187 17.0001 19.7176C17.4972 19.8164 18.0124 19.7657 18.4806 19.5717C18.9489 19.3778 19.3491 19.0493 19.6307 18.6279C19.9122 18.2065 20.0625 17.7111 20.0625 17.2043C20.0625 16.5247 19.7925 15.8729 19.312 15.3923C18.8314 14.9118 18.1796 14.6418 17.5 14.6418Z" fill="#231F20"/>
</svg>
