<svg width="24" height="23" viewBox="0 0 24 23" fill="none" xmlns="http://www.w3.org/2000/svg">
<path d="M19.75 15.125C18.8007 15.1258 17.8896 15.4989 17.2125 16.1642L7.66663 11.9108C7.66663 11.7658 7.66663 11.645 7.66663 11.5C7.66663 11.355 7.66663 11.2342 7.66663 11.1012L17.2125 6.83583C17.8104 7.42189 18.5927 7.78293 19.4266 7.85761C20.2605 7.93229 21.0945 7.71602 21.7871 7.24553C22.4796 6.77504 22.9879 6.07934 23.2257 5.27658C23.4635 4.47383 23.4161 3.61351 23.0915 2.84175C22.7669 2.06999 22.1852 1.43437 21.4452 1.04285C20.7051 0.651329 19.8524 0.528042 19.0317 0.693929C18.2111 0.859816 17.4732 1.30465 16.9433 1.95288C16.4134 2.60111 16.1243 3.41276 16.125 4.25V4.66083L6.57913 8.91416C6.06965 8.41362 5.42366 8.07473 4.72225 7.94004C4.02083 7.80535 3.29526 7.88086 2.63662 8.1571C1.97797 8.43334 1.41561 8.89799 1.02012 9.49272C0.624631 10.0875 0.413643 10.7858 0.413643 11.5C0.413643 12.2142 0.624631 12.9125 1.02012 13.5073C1.41561 14.102 1.97797 14.5667 2.63662 14.8429C3.29526 15.1191 4.02083 15.1946 4.72225 15.06C5.42366 14.9253 6.06965 14.5864 6.57913 14.0858L16.125 18.3512V18.75C16.125 19.467 16.3376 20.1678 16.7359 20.7639C17.1342 21.3601 17.7004 21.8247 18.3627 22.0991C19.0251 22.3734 19.754 22.4452 20.4572 22.3053C21.1604 22.1655 21.8063 21.8202 22.3132 21.3133C22.8202 20.8063 23.1654 20.1604 23.3053 19.4572C23.4452 18.754 23.3734 18.0252 23.099 17.3628C22.8247 16.7004 22.36 16.1342 21.7639 15.7359C21.1678 15.3376 20.4669 15.125 19.75 15.125ZM19.75 3.04166C19.989 3.04166 20.2226 3.11253 20.4213 3.2453C20.62 3.37808 20.7749 3.56679 20.8663 3.78759C20.9578 4.00838 20.9817 4.25134 20.9351 4.48573C20.8885 4.72012 20.7734 4.93543 20.6044 5.10442C20.4354 5.27341 20.2201 5.38849 19.9857 5.43511C19.7513 5.48174 19.5084 5.45781 19.2876 5.36635C19.0668 5.2749 18.878 5.12002 18.7453 4.92131C18.6125 4.7226 18.5416 4.48898 18.5416 4.25C18.5416 3.92953 18.6689 3.62218 18.8955 3.39558C19.1222 3.16897 19.4295 3.04166 19.75 3.04166ZM4.04163 12.7083C3.80265 12.7083 3.56903 12.6375 3.37032 12.5047C3.17161 12.3719 3.01673 12.1832 2.92528 11.9624C2.83382 11.7416 2.80989 11.4987 2.85652 11.2643C2.90314 11.0299 3.01822 10.8146 3.18721 10.6456C3.3562 10.4766 3.57151 10.3615 3.8059 10.3149C4.04029 10.2683 4.28325 10.2922 4.50404 10.3836C4.72484 10.4751 4.91355 10.63 5.04633 10.8287C5.1791 11.0274 5.24997 11.261 5.24997 11.5C5.24997 11.8205 5.12266 12.1278 4.89605 12.3544C4.66945 12.581 4.3621 12.7083 4.04163 12.7083ZM19.75 19.9583C19.511 19.9583 19.2774 19.8875 19.0787 19.7547C18.8799 19.6219 18.7251 19.4332 18.6336 19.2124C18.5422 18.9916 18.5182 18.7487 18.5649 18.5143C18.6115 18.2799 18.7266 18.0646 18.8955 17.8956C19.0645 17.7266 19.2798 17.6115 19.5142 17.5649C19.7486 17.5183 19.9916 17.5422 20.2124 17.6336C20.4332 17.7251 20.6219 17.88 20.7547 18.0787C20.8874 18.2774 20.9583 18.511 20.9583 18.75C20.9583 19.0705 20.831 19.3778 20.6044 19.6044C20.3778 19.831 20.0704 19.9583 19.75 19.9583Z" fill="#231F20"/>
</svg>
