<svg width="24" height="30" viewBox="0 0 24 30" fill="none" xmlns="http://www.w3.org/2000/svg">
<path d="M12.0212 13.4361C13.2752 13.4361 14.5011 13.0643 15.5438 12.3676C16.5864 11.6709 17.3991 10.6806 17.879 9.52208C18.3589 8.36353 18.4844 7.08868 18.2398 5.85876C17.9951 4.62885 17.3913 3.49909 16.5046 2.61237C15.6178 1.72565 14.4881 1.12179 13.2582 0.877142C12.0283 0.632496 10.7534 0.758057 9.59485 1.23795C8.43629 1.71784 7.44606 2.5305 6.74937 3.57318C6.05268 4.61585 5.68082 5.8417 5.68082 7.09572C5.68082 8.7773 6.34882 10.39 7.53788 11.5791C8.72693 12.7681 10.3396 13.4361 12.0212 13.4361ZM12.0212 3.92551C12.6482 3.92551 13.2612 4.11144 13.7825 4.45979C14.3038 4.80814 14.7102 5.30325 14.9501 5.88253C15.19 6.46181 15.2528 7.09923 15.1305 7.71419C15.0082 8.32915 14.7063 8.89403 14.2629 9.33739C13.8195 9.78075 13.2547 10.0827 12.6397 10.205C12.0247 10.3273 11.3873 10.2645 10.808 10.0246C10.2288 9.78466 9.73364 9.37832 9.38529 8.85699C9.03695 8.33565 8.85102 7.72272 8.85102 7.09572C8.85102 6.25493 9.18502 5.44857 9.77955 4.85404C10.3741 4.25952 11.1804 3.92551 12.0212 3.92551Z" fill="#231F20"/>
<path d="M12.0212 16.6063C9.07845 16.6063 6.25621 17.7753 4.17536 19.8562C2.09451 21.937 0.925507 24.7593 0.925507 27.702C0.925507 28.1224 1.09251 28.5256 1.38977 28.8229C1.68704 29.1201 2.09021 29.2871 2.51061 29.2871C2.931 29.2871 3.33418 29.1201 3.63144 28.8229C3.92871 28.5256 4.09571 28.1224 4.09571 27.702C4.09571 25.6001 4.93071 23.5842 6.41703 22.0979C7.90335 20.6115 9.91924 19.7765 12.0212 19.7765C14.1232 19.7765 16.1391 20.6115 17.6254 22.0979C19.1117 23.5842 19.9467 25.6001 19.9467 27.702C19.9467 28.1224 20.1137 28.5256 20.411 28.8229C20.7082 29.1201 21.1114 29.2871 21.5318 29.2871C21.9522 29.2871 22.3554 29.1201 22.6527 28.8229C22.9499 28.5256 23.1169 28.1224 23.1169 27.702C23.1169 24.7593 21.9479 21.937 19.8671 19.8562C17.7862 17.7753 14.964 16.6063 12.0212 16.6063Z" fill="#231F20"/>
</svg>
