<svg width="27" height="19" viewBox="0 0 27 19" fill="none" xmlns="http://www.w3.org/2000/svg">
<path d="M25.2654 8.0417H1.7862C1.02106 8.0417 0.400787 8.66197 0.400787 9.42712V9.57295C0.400787 10.3381 1.02106 10.9584 1.7862 10.9584H25.2654C26.0305 10.9584 26.6508 10.3381 26.6508 9.57295V9.42712C26.6508 8.66197 26.0305 8.0417 25.2654 8.0417Z" fill="#231F20"/>
<path d="M25.2654 15.3334H1.7862C1.02106 15.3334 0.400787 15.9536 0.400787 16.7188V16.8646C0.400787 17.6298 1.02106 18.25 1.7862 18.25H25.2654C26.0305 18.25 26.6508 17.6298 26.6508 16.8646V16.7188C26.6508 15.9536 26.0305 15.3334 25.2654 15.3334Z" fill="#231F20"/>
<path d="M25.2654 0.750031H1.7862C1.02106 0.750031 0.400787 1.3703 0.400787 2.13545V2.28128C0.400787 3.04643 1.02106 3.6667 1.7862 3.6667H25.2654C26.0305 3.6667 26.6508 3.04643 26.6508 2.28128V2.13545C26.6508 1.3703 26.0305 0.750031 25.2654 0.750031Z" fill="#231F20"/>
</svg>
