<svg width="29" height="23" viewBox="0 0 29 23" fill="none" xmlns="http://www.w3.org/2000/svg">
<path d="M24.0833 0H4.25C3.12283 0 2.04183 0.447767 1.2448 1.2448C0.447767 2.04183 0 3.12283 0 4.25V18.4167C0 19.5438 0.447767 20.6248 1.2448 21.4219C2.04183 22.2189 3.12283 22.6667 4.25 22.6667H24.0833C25.2105 22.6667 26.2915 22.2189 27.0885 21.4219C27.8856 20.6248 28.3333 19.5438 28.3333 18.4167V4.25C28.3333 3.12283 27.8856 2.04183 27.0885 1.2448C26.2915 0.447767 25.2105 0 24.0833 0ZM23.1342 2.83333L14.1667 9.5625L5.19917 2.83333H23.1342ZM24.0833 19.8333H4.25C3.87428 19.8333 3.51394 19.6841 3.24827 19.4184C2.98259 19.1527 2.83333 18.7924 2.83333 18.4167V4.60417L13.3167 12.4667C13.5619 12.6506 13.8601 12.75 14.1667 12.75C14.4732 12.75 14.7714 12.6506 15.0167 12.4667L25.5 4.60417V18.4167C25.5 18.7924 25.3507 19.1527 25.0851 19.4184C24.8194 19.6841 24.4591 19.8333 24.0833 19.8333Z" fill="#231F20"/>
</svg>
