<svg width="31" height="21" viewBox="0 0 31 21" fill="none" xmlns="http://www.w3.org/2000/svg">
<path d="M2.52465 4.04928C3.42552 4.04928 4.15582 3.31898 4.15582 2.41812C4.15582 1.51725 3.42552 0.786957 2.52465 0.786957C1.62379 0.786957 0.893494 1.51725 0.893494 2.41812C0.893494 3.31898 1.62379 4.04928 2.52465 4.04928Z" fill="#231F20"/>
<path d="M2.52468 12.2051C3.42555 12.2051 4.15585 11.4748 4.15585 10.5739C4.15585 9.67308 3.42555 8.94278 2.52468 8.94278C1.62382 8.94278 0.893524 9.67308 0.893524 10.5739C0.893524 11.4748 1.62382 12.2051 2.52468 12.2051Z" fill="#231F20"/>
<path d="M2.52468 20.3609C3.42555 20.3609 4.15585 19.6306 4.15585 18.7297C4.15585 17.8289 3.42555 17.0986 2.52468 17.0986C1.62382 17.0986 0.893524 17.8289 0.893524 18.7297C0.893524 19.6306 1.62382 20.3609 2.52468 20.3609Z" fill="#231F20"/>
<path d="M28.7211 8.94278H8.95141C8.1046 8.94278 7.41812 9.62926 7.41812 10.4761V10.6718C7.41812 11.5186 8.1046 12.2051 8.95141 12.2051H28.7211C29.5679 12.2051 30.2544 11.5186 30.2544 10.6718V10.4761C30.2544 9.62926 29.5679 8.94278 28.7211 8.94278Z" fill="#231F20"/>
<path d="M28.7211 17.0986H8.95141C8.1046 17.0986 7.41812 17.7851 7.41812 18.6319V18.8276C7.41812 19.6744 8.1046 20.3609 8.95141 20.3609H28.7211C29.5679 20.3609 30.2544 19.6744 30.2544 18.8276V18.6319C30.2544 17.7851 29.5679 17.0986 28.7211 17.0986Z" fill="#231F20"/>
<path d="M28.7211 0.786957H8.95141C8.1046 0.786957 7.41812 1.47343 7.41812 2.32025V2.51599C7.41812 3.3628 8.1046 4.04928 8.95141 4.04928H28.7211C29.5679 4.04928 30.2544 3.3628 30.2544 2.51599V2.32025C30.2544 1.47343 29.5679 0.786957 28.7211 0.786957Z" fill="#231F20"/>
</svg>
