<svg width="30" height="32" viewBox="0 0 30 32" fill="none" xmlns="http://www.w3.org/2000/svg">
<path d="M28.3678 13.1363L16.1466 0.64575C15.9993 0.497181 15.824 0.379259 15.6308 0.298785C15.4376 0.218312 15.2305 0.17688 15.0212 0.17688C14.812 0.17688 14.6048 0.218312 14.4116 0.298785C14.2185 0.379259 14.0431 0.497181 13.8958 0.64575L1.67467 13.1522C1.37895 13.4503 1.14539 13.8042 0.987571 14.1933C0.829748 14.5824 0.7508 14.999 0.75531 15.4189V28.702C0.754082 29.5135 1.06404 30.2945 1.62137 30.8842C2.17869 31.474 2.94094 31.8276 3.75115 31.8722H26.2913C27.1015 31.8276 27.8637 31.474 28.4211 30.8842C28.9784 30.2945 29.2883 29.5135 29.2871 28.702V15.4189C29.2884 14.5676 28.9587 13.7491 28.3678 13.1363ZM11.851 28.702V19.1914H18.1914V28.702H11.851ZM26.1169 28.702H21.3616V17.6063C21.3616 17.1859 21.1946 16.7828 20.8974 16.4855C20.6001 16.1882 20.1969 16.0212 19.7765 16.0212H10.2659C9.84552 16.0212 9.44234 16.1882 9.14508 16.4855C8.84781 16.7828 8.68081 17.1859 8.68081 17.6063V28.702H3.92551V15.3555L15.0212 4.02201L26.1169 15.4189V28.702Z" fill="#231F20"/>
</svg>
