<svg width="24" height="24" viewBox="0 0 24 24" fill="none" xmlns="http://www.w3.org/2000/svg">
<path d="M12 13.1964C12.6443 13.1964 13.1667 12.6741 13.1667 12.0297C13.1667 11.3854 12.6443 10.8631 12 10.8631C11.3557 10.8631 10.8333 11.3854 10.8333 12.0297C10.8333 12.6741 11.3557 13.1964 12 13.1964Z" fill="#231F20"/>
<path d="M16.6667 13.1964C17.311 13.1964 17.8333 12.6741 17.8333 12.0297C17.8333 11.3854 17.311 10.8631 16.6667 10.8631C16.0223 10.8631 15.5 11.3854 15.5 12.0297C15.5 12.6741 16.0223 13.1964 16.6667 13.1964Z" fill="#231F20"/>
<path d="M7.33333 13.1964C7.97766 13.1964 8.5 12.6741 8.5 12.0297C8.5 11.3854 7.97766 10.8631 7.33333 10.8631C6.689 10.8631 6.16666 11.3854 6.16666 12.0297C6.16666 12.6741 6.689 13.1964 7.33333 13.1964Z" fill="#231F20"/>
<path d="M20.2483 3.7814C18.3341 1.85465 15.8076 0.656145 13.1044 0.392512C10.4012 0.128879 7.69074 0.816637 5.44028 2.33722C3.18983 3.8578 1.54041 6.11591 0.776392 8.72224C0.0123753 11.3286 0.181638 14.1198 1.255 16.6147C1.36687 16.8466 1.40358 17.1076 1.36 17.3614L0.333334 22.2964C0.293779 22.4856 0.301857 22.6817 0.356839 22.867C0.411822 23.0523 0.511988 23.2211 0.648334 23.3581C0.760106 23.469 0.893187 23.5562 1.03956 23.6144C1.18593 23.6725 1.34255 23.7004 1.5 23.6964H1.73333L6.72667 22.6931C6.98045 22.6626 7.23781 22.6987 7.47333 22.7981C9.96825 23.8714 12.7595 24.0407 15.3658 23.2767C17.9722 22.5127 20.2303 20.8632 21.7508 18.6128C23.2714 16.3623 23.9592 13.6519 23.6956 10.9487C23.4319 8.24549 22.2334 5.71898 20.3067 3.80473L20.2483 3.7814ZM21.2167 13.5347C20.9886 14.9277 20.4475 16.2508 19.6341 17.4045C18.8208 18.5581 17.7564 19.5122 16.521 20.1951C15.2856 20.8779 13.9115 21.2716 12.5019 21.3466C11.0924 21.4216 9.6842 21.1759 8.38333 20.6281C7.92197 20.4318 7.42635 20.3287 6.925 20.3247C6.70599 20.3263 6.48748 20.3458 6.27167 20.3831L2.98167 21.0481L3.64667 17.7581C3.77911 17.0456 3.69373 16.3097 3.40167 15.6464C2.85379 14.3455 2.60811 12.9373 2.68311 11.5278C2.75811 10.1183 3.15184 8.7441 3.83467 7.50872C4.5175 6.27334 5.47164 5.20893 6.62528 4.39559C7.77892 3.58225 9.10202 3.04117 10.495 2.81306C11.9572 2.5731 13.4554 2.6847 14.8659 3.13863C16.2764 3.59257 17.5585 4.37579 18.6062 5.42352C19.6539 6.47125 20.4372 7.75338 20.8911 9.16384C21.345 10.5743 21.4566 12.0726 21.2167 13.5347Z" fill="#231F20"/>
</svg>
