<svg width="26" height="29" viewBox="0 0 26 29" fill="none" xmlns="http://www.w3.org/2000/svg">
<path d="M25.1157 18.9437L22.5339 16.3477V9.95071C22.5683 7.57526 21.742 5.2676 20.2077 3.45383C18.6733 1.64006 16.5346 0.44267 14.1863 0.0827545C12.8235 -0.096723 11.438 0.0165115 10.1224 0.414902C8.80678 0.813293 7.59125 1.48768 6.55691 2.39306C5.52258 3.29845 4.69322 4.41401 4.12418 5.66531C3.55514 6.91662 3.2595 8.27489 3.25699 9.6495V16.3477L0.67526 18.9437C0.350974 19.2734 0.131065 19.6914 0.0430231 20.1454C-0.0450186 20.5994 0.00271371 21.0693 0.180253 21.4963C0.357792 21.9233 0.657261 22.2885 1.04122 22.5462C1.42518 22.804 1.8766 22.9428 2.33904 22.9454H7.15828V23.4331C7.22527 24.8892 7.86675 26.2593 8.94215 27.2433C10.0175 28.2273 11.4392 28.7449 12.8955 28.6826C14.3518 28.7449 15.7734 28.2273 16.8488 27.2433C17.9242 26.2593 18.5656 24.8892 18.6326 23.4331V22.9454H23.4519C23.9143 22.9428 24.3657 22.804 24.7497 22.5462C25.1337 22.2885 25.4331 21.9233 25.6107 21.4963C25.7882 21.0693 25.8359 20.5994 25.7479 20.1454C25.6599 19.6914 25.4399 19.2734 25.1157 18.9437ZM15.764 23.4331C15.6845 24.123 15.3419 24.7556 14.8075 25.1991C14.2731 25.6427 13.5882 25.8629 12.8955 25.814C12.2027 25.8629 11.5178 25.6427 10.9834 25.1991C10.4491 24.7556 10.1064 24.123 10.0269 23.4331V22.9454H15.764V23.4331ZM3.58688 20.0768L5.27935 18.3844C5.5478 18.1175 5.76079 17.8001 5.90603 17.4506C6.05126 17.101 6.12588 16.7262 6.12558 16.3477V9.6495C6.12636 8.68193 6.33411 7.72572 6.73486 6.84504C7.13562 5.96436 7.72012 5.1796 8.44914 4.54341C9.16832 3.89179 10.0205 3.40422 10.9467 3.11447C11.873 2.82472 12.8511 2.73969 13.8134 2.86529C15.4721 3.13461 16.9777 3.99409 18.053 5.28549C19.1283 6.57688 19.7009 8.21325 19.6653 9.89333V16.3477C19.6632 16.7252 19.7355 17.0994 19.8783 17.4489C20.021 17.7984 20.2314 18.1163 20.4972 18.3844L22.204 20.0768H3.58688Z" fill="#231F20"/>
</svg>
