<svg width="35" height="35" viewBox="0 0 35 35" fill="none" xmlns="http://www.w3.org/2000/svg">
<path d="M17.2641 0.138565C13.8952 0.138565 10.602 1.13754 7.80096 3.00916C4.99988 4.88079 2.8167 7.541 1.5275 10.6534C0.238307 13.7658 -0.0990058 17.1906 0.558221 20.4947C1.21545 23.7988 2.83769 26.8338 5.21982 29.2159C7.60194 31.598 10.637 33.2203 13.9411 33.8775C17.2452 34.5347 20.67 34.1974 23.7823 32.9082C26.8947 31.619 29.5549 29.4359 31.4266 26.6348C33.2982 23.8337 34.2972 20.5405 34.2972 17.1717C34.2972 14.9349 33.8566 12.7199 33.0006 10.6534C32.1446 8.58684 30.89 6.70912 29.3083 5.12745C27.7266 3.54578 25.8489 2.29113 23.7823 1.43513C21.7158 0.57914 19.5009 0.138565 17.2641 0.138565ZM17.2641 30.7982C14.569 30.7982 11.9344 29.999 9.69358 28.5017C7.45271 27.0044 5.70617 24.8762 4.67481 22.3863C3.64346 19.8964 3.37361 17.1566 3.89939 14.5133C4.42517 11.87 5.72297 9.442 7.62867 7.5363C9.53436 5.6306 11.9624 4.3328 14.6057 3.80702C17.2489 3.28124 19.9888 3.55109 22.4787 4.58244C24.9686 5.6138 27.0968 7.36034 28.5941 9.60121C30.0914 11.8421 30.8905 14.4766 30.8905 17.1717C30.8905 20.7857 29.4549 24.2516 26.8994 26.8071C24.344 29.3625 20.878 30.7982 17.2641 30.7982Z" fill="#231F20"/>
<path d="M17.8431 9.42163C17.4258 9.03701 16.9046 8.78352 16.3444 8.69267C15.7841 8.60182 15.2095 8.67762 14.692 8.91064C14.1896 9.11386 13.7593 9.46224 13.4558 9.91128C13.1524 10.3603 12.9898 10.8896 12.9887 11.4315V22.9119C12.9898 23.4538 13.1524 23.9831 13.4558 24.4321C13.7593 24.8812 14.1896 25.2295 14.692 25.4328C15.0613 25.6002 15.4619 25.6873 15.8673 25.6883C16.5979 25.685 17.3015 25.4121 17.8431 24.9218L24.0773 19.1816C24.3561 18.9263 24.5787 18.6157 24.7311 18.2697C24.8834 17.9237 24.962 17.5498 24.962 17.1717C24.962 16.7936 24.8834 16.4197 24.7311 16.0737C24.5787 15.7277 24.3561 15.4171 24.0773 15.1618L17.8431 9.42163ZM16.4124 21.6003V12.7431L21.1987 17.1717L16.4124 21.6003Z" fill="#231F20"/>
</svg>
